<?xml version="1.0" encoding="UTF-8"?>
<svg xmlns="http://www.w3.org/2000/svg" viewBox="0 0 1280 1280" preserveAspectRatio="xMidYMid slice">
  <defs>
    <linearGradient id="fsky" x1="0" y1="0" x2="0" y2="1">
      <stop offset="0%" stop-color="#134e5e"/>
      <stop offset="100%" stop-color="#71b280"/>
    </linearGradient>
  </defs>
  <rect width="1280" height="1280" fill="url(#fsky)"/>
  <path d="M120 1280 L120 600 L160 600 L160 1280 Z" fill="#0a2620" opacity="0.85"/>
  <path d="M260 1280 L260 480 L300 480 L300 1280 Z" fill="#0a2620" opacity="0.85"/>
  <path d="M380 1280 L380 700 L420 700 L420 1280 Z" fill="#0a2620" opacity="0.85"/>
  <path d="M560 1280 L560 400 L600 400 L600 1280 Z" fill="#0a2620" opacity="0.9"/>
  <path d="M720 1280 L720 650 L760 650 L760 1280 Z" fill="#0a2620" opacity="0.85"/>
  <path d="M900 1280 L900 520 L940 520 L940 1280 Z" fill="#0a2620" opacity="0.9"/>
  <path d="M1080 1280 L1080 580 L1120 580 L1120 1280 Z" fill="#0a2620" opacity="0.85"/>
</svg>
