<?xml version="1.0" encoding="UTF-8"?>
<svg xmlns="http://www.w3.org/2000/svg" viewBox="0 0 1280 1280" preserveAspectRatio="xMidYMid slice">
  <defs>
    <linearGradient id="msky" x1="0" y1="0" x2="0" y2="1">
      <stop offset="0%" stop-color="#1f1c2c"/>
      <stop offset="100%" stop-color="#928dab"/>
    </linearGradient>
    <radialGradient id="halo" cx="0.5" cy="0.45" r="0.35">
      <stop offset="0%" stop-color="#f5a623" stop-opacity="0.45"/>
      <stop offset="100%" stop-color="#f5a623" stop-opacity="0"/>
    </radialGradient>
  </defs>
  <rect width="1280" height="1280" fill="url(#msky)"/>
  <rect width="1280" height="1280" fill="url(#halo)"/>
  <!-- dome -->
  <path d="M540 720 Q540 540 640 540 Q740 540 740 720 Z" fill="#0d0a18" opacity="0.85"/>
  <rect x="630" y="490" width="20" height="60" fill="#0d0a18" opacity="0.85"/>
  <circle cx="640" cy="490" r="12" fill="#0d0a18" opacity="0.85"/>
  <!-- minarets -->
  <rect x="430" y="540" width="14" height="240" fill="#0d0a18" opacity="0.85"/>
  <circle cx="437" cy="535" r="14" fill="#0d0a18" opacity="0.85"/>
  <rect x="836" y="540" width="14" height="240" fill="#0d0a18" opacity="0.85"/>
  <circle cx="843" cy="535" r="14" fill="#0d0a18" opacity="0.85"/>
  <!-- base -->
  <rect x="380" y="720" width="520" height="60" fill="#0d0a18" opacity="0.85"/>
  <!-- arches -->
  <path d="M470 780 Q470 720 510 720 Q550 720 550 780 Z" fill="#f5a623" opacity="0.18"/>
  <path d="M580 780 Q580 720 620 720 Q660 720 660 780 Z" fill="#f5a623" opacity="0.18"/>
  <path d="M680 780 Q680 720 720 720 Q760 720 760 780 Z" fill="#f5a623" opacity="0.18"/>
  <path d="M780 780 Q780 720 820 720 Q860 720 860 780 Z" fill="#f5a623" opacity="0.18"/>
</svg>
